<?xml version="1.0" standalone="no"?>
<!DOCTYPE svg PUBLIC "-//W3C//DTD SVG 1.1//EN" "http://www.w3.org/Graphics/SVG/1.1/DTD/svg11.dtd" >
<svg xmlns="http://www.w3.org/2000/svg">
<metadata>
Created by FontForge 20120731 at Fri Jul 14 14:25:52 2017
 By admin
</metadata>
<defs>
<font id="iconfont" horiz-adv-x="1024" >
  <font-face 
    font-family="iconfont"
    font-weight="500"
    font-stretch="normal"
    units-per-em="1024"
    panose-1="2 0 6 3 0 0 0 0 0 0"
    ascent="896"
    descent="-128"
    x-height="792"
    bbox="-21 -223 1465 912.895"
    underline-thickness="0"
    underline-position="0"
    unicode-range="U+0078-E9BC"
  />
<missing-glyph 
 />
    <glyph glyph-name=".notdef" 
 />
    <glyph glyph-name=".notdef" 
 />
    <glyph glyph-name=".null" horiz-adv-x="0" 
 />
    <glyph glyph-name="nonmarkingreturn" horiz-adv-x="341" 
 />
    <glyph glyph-name="x" unicode="x" horiz-adv-x="1001" 
d="M281 543q-27 -1 -53 -1h-83q-18 0 -36.5 -6t-32.5 -18.5t-23 -32t-9 -45.5v-76h912v41q0 16 -0.5 30t-0.5 18q0 13 -5 29t-17 29.5t-31.5 22.5t-49.5 9h-133v-97h-438v97zM955 310v-52q0 -23 0.5 -52t0.5 -58t-10.5 -47.5t-26 -30t-33 -16t-31.5 -4.5q-14 -1 -29.5 -0.5
t-29.5 0.5h-32l-45 128h-439l-44 -128h-29h-34q-20 0 -45 1q-25 0 -41 9.5t-25.5 23t-13.5 29.5t-4 30v167h911zM163 247q-12 0 -21 -8.5t-9 -21.5t9 -21.5t21 -8.5q13 0 22 8.5t9 21.5t-9 21.5t-22 8.5zM316 123q-8 -26 -14 -48q-5 -19 -10.5 -37t-7.5 -25t-3 -15t1 -14.5
t9.5 -10.5t21.5 -4h37h67h81h80h64h36q23 0 34 12t2 38q-5 13 -9.5 30.5t-9.5 34.5q-5 19 -11 39h-368zM336 498v228q0 11 2.5 23t10 21.5t20.5 15.5t34 6h188q31 0 51.5 -14.5t20.5 -52.5v-227h-327z" />
    <glyph glyph-name="delete" unicode="&#xe602;" 
d="M321.5 70q13.5 0 22.5 9t9 22v350q0 13 -9 22t-22.5 9t-22.5 -9t-9 -22v-350q0 -13 9 -22t22.5 -9zM512 70q13 0 22.5 9t9.5 22v350q0 13 -9.5 22t-22.5 9t-22.5 -9t-9.5 -22v-350q0 -13 9.5 -22t22.5 -9zM702 70q13 0 22.5 9t9.5 22v350q0 13 -9.5 22t-22.5 9t-22 -9
t-9 -22v-350q0 -13 9 -22t22 -9zM861 800h-131q-11 41 -45 68t-78 27h-190q-44 0 -78 -27t-45 -68h-131q-53 0 -90 -37.5t-37 -89.5v-32h31v-32h64v-603q0 -52 37 -89.5t90 -37.5h508q52 0 89.5 37.5t37.5 89.5v603h63v32h32v32q0 52 -37 89.5t-90 37.5zM417 832h190
q36 0 55 -32h-300q18 32 55 32zM829 6q0 -26 -18.5 -44.5t-44.5 -18.5h-508q-27 0 -47.5 18.5t-20.5 44.5l4 603h635v-603zM99 673q0 26 18.5 44.5t45.5 18.5h698q26 0 45 -18.5t19 -44.5h-826v0z" />
    <glyph glyph-name="desc" unicode="&#xe61c;" 
d="M525 148l472 472h-969z" />
    <glyph glyph-name="sweep" unicode="&#xe631;" 
d="M986 349h-949q-15 0 -25.5 10.5t-10.5 25.5t10.5 26t25.5 11h949q15 0 25.5 -11t10.5 -26t-10.5 -25.5t-25.5 -10.5v0zM876 -89h-219q-15 0 -25.5 10.5t-10.5 26t10.5 26t25.5 10.5h219q15 0 26 10.5t11 25.5v183q0 15 10.5 25.5t25.5 10.5t26 -10.5t11 -25.5v-183
q0 -45 -32 -77t-78 -32v0zM329 -89h-183q-45 0 -77 32t-32 77v183q0 15 10.5 25.5t26 10.5t26 -10.5t10.5 -25.5v-183q0 -15 10.5 -25.5t25.5 -10.5h183q15 0 25.5 -10.5t10.5 -26t-10.5 -26t-25.5 -10.5v0zM74 531q-16 0 -26.5 11t-10.5 26v182q0 45 32 77.5t77 32.5h183
q15 0 25.5 -11t10.5 -26t-10.5 -25.5t-25.5 -10.5h-183q-15 0 -25.5 -11t-10.5 -26v-182q0 -15 -10.5 -26t-25.5 -11v0zM949 531q-15 0 -25.5 11t-10.5 26v182q0 15 -11 26t-26 11h-219q-15 0 -25.5 10.5t-10.5 25.5t10.5 26t25.5 11h219q46 0 78 -32.5t32 -77.5v-182
q0 -15 -11 -26t-26 -11v0zM949 531z" />
    <glyph glyph-name="refresh" unicode="&#xe60b;" 
d="M855 129l164 285h-116q-8 116 -69.5 212.5t-162.5 152.5t-218 56q-92 0 -175.5 -35.5t-143.5 -96t-96 -144t-36 -175.5t36 -175.5t96.5 -144t144 -96t174.5 -35.5q166 0 293 108l-60 78q-100 -88 -233 -88q-95 0 -176.5 47.5t-128.5 128.5t-47 177t47 177t128.5 128.5
t176.5 47.5q138 0 239 -93.5t112 -229.5h-114l165 -285v0z" />
    <glyph glyph-name="calendar" unicode="&#xe630;" 
d="M290 668q19 0 31.5 13t12.5 33v43v0v0v43q0 19 -12 32q-20 21 -48 10.5t-28 -40.5q-1 -19 0 -45v-42q0 -20 12.5 -33.5t31.5 -13.5zM737.5 667q18.5 0 31 13.5t12.5 32.5v43v0v0v43q0 20 -11 32q-21 22 -49 11t-28 -41v-45v-42q0 -20 13 -33.5t31.5 -13.5zM544 339h118
v-87h-118v87zM723 458h117v-87h-117v87zM723 339h117v-87h-117v87zM365 220h118v-88h-118v88zM544 220h117v-87h-117v87zM723 220h117v-87h-117v87zM186 220h118v-88h-118v88zM187 339h117v-88h-117v88zM544 458h117v-87h-117v87zM365 339h118v-87h-118v87zM365 458h118v-87
h-118v87zM942 757h-110v-15q-1 -40 -26 -68t-63 -31h-7t-8 1q-37 3 -62 31.5t-25 67.5v14h-258v-15q0 -42 -27.5 -70.5t-67.5 -28.5t-68 29t-28 71v14h-110q-8 0 -13 -5t-5 -12v-739q0 -7 5 -12t13 -5h860q8 0 13 5t5 12v739q0 7 -5 12t-13 5zM907 42h-787v482h787v-430v0
v-52v0v0z" />
    <glyph glyph-name="weixin" unicode="&#xe603;" 
d="M691 563q15 0 34 -2q-23 108 -126 179.5t-234 71.5q-97 0 -179.5 -40.5t-130.5 -110.5t-48 -153q0 -142 143 -242l-35 -107l124 63q91 -18 126 -18q15 0 33 1q-11 38 -11 75q0 117 88.5 200t215.5 83zM499 660q20 0 32 -12.5t12 -32.5t-12 -32.5t-32 -12.5q-22 0 -38 13
t-16 32t16 32t38 13zM248 570q-21 0 -37 13t-16 32t16 32t37 13t33 -12.5t12 -32.5t-12 -32.5t-33 -12.5zM1017 284q0 70 -42.5 130t-112 95t-149.5 35q-127 0 -215.5 -76t-88.5 -183.5t88.5 -183.5t215.5 -76q36 0 107 18l98 -54l-26 90q125 93 125 205zM615 329
q-14 0 -25 11t-11 24.5t11 24.5t25 11q19 0 31.5 -10.5t12.5 -24.5t-12.5 -25t-31.5 -11zM811 329q-13 0 -24 11t-11 24.5t11 24.5t24 11q20 0 32.5 -10.5t12.5 -24.5t-12.5 -25t-32.5 -11z" />
    <glyph glyph-name="chart" unicode="&#xe6f7;" 
d="M978 862h38v-938h-1007v38l968 2zM474 823q0 17 11.5 28t27.5 11h116q16 0 27.5 -11t11.5 -28v-782h-194v782zM706 589q0 16 11.5 27.5t27.5 11.5h116q16 0 27.5 -11.5t11.5 -27.5v-548h-194v548zM242 354q0 16 11 27.5t27 11.5h117q16 0 27 -11.5t11 -27.5v-313h-193
v313zM48 159h116q16 0 27.5 -11.5t11.5 -27.5v-79h-194v79q0 16 11.5 27.5t27.5 11.5v0z" />
    <glyph glyph-name="order" unicode="&#xe62f;" 
d="M706 328h-385q-9 0 -15.5 -6.5t-6.5 -16.5v-11q0 -9 6.5 -15.5t15.5 -6.5h385q9 0 15 6.5t6 15.5v11q0 10 -6 16.5t-15 6.5zM504 126h-184q-9 0 -15 -7t-6 -16v-11q0 -10 6 -16.5t15 -6.5h184q9 0 15 6.5t6 16.5v11q0 9 -6 16t-15 7zM896 800h-766q-18 0 -31.5 -13.5
t-13.5 -33.5v-929q0 -20 13.5 -33.5t31.5 -13.5h546q20 4 38 22l205 205q18 17 23 46v703q0 20 -13.5 33.5t-32.5 13.5zM885 11v2v0v-2zM885 58h-175q-30 0 -40 -10.5t-10 -39.5v-116v0v-59h-493q-11 0 -18 7.5t-7 18.5v859q0 11 7 18.5t18 7.5h693q11 0 18 -7.5t7 -18.5
v-660v0zM706 542h-385q-9 0 -15.5 -7t-6.5 -16v-11q0 -10 6.5 -16.5t15.5 -6.5h385q9 0 15 6.5t6 16.5v11q0 9 -6 16t-15 7z" />
    <glyph glyph-name="phone" unicode="&#xe737;" 
d="M730 889h-406q-38 0 -65 -25t-27 -59v-842q0 -34 27 -59t65 -25h406q38 0 65.5 25t27.5 59v842q0 34 -27.5 59t-65.5 25zM472 822h111q7 0 12.5 -5t5.5 -12t-5.5 -12t-12.5 -5h-111q-8 0 -13.5 5t-5.5 12t5.5 12t13.5 5zM527 -87q-23 0 -39 14.5t-16 35.5t16 36t39 15
t39.5 -15t16.5 -36t-16.5 -35.5t-39.5 -14.5zM786 47h-517v674h517v-674z" />
    <glyph glyph-name="shopping-cart" unicode="&#xe60d;" 
d="M340 6q-29 0 -49.5 -20.5t-20.5 -49.5t20.5 -49.5t49.5 -20.5t49.5 20.5t20.5 49.5t-20.5 49.5t-49.5 20.5v0v0zM829 6q-29 0 -49.5 -20.5t-20.5 -49.5t20.5 -49.5t49.5 -20.5t49.5 20.5t20.5 49.5t-20.5 49.5t-49.5 20.5v0v0zM898 41h-567q-38 0 -67 26t-34 64l-59 417
l-34 195q-1 13 -11 22t-21 9h-45q-14 0 -24.5 10.5t-10.5 24.5t10.5 24.5t24.5 10.5h45q38 0 67.5 -26.5t34.5 -64.5l33 -194l60 -419q1 -12 10.5 -20.5t20.5 -8.5h567q15 0 25 -10.5t10 -25t-10 -24.5t-25 -10v0v0zM375 180q-14 0 -24 9.5t-11 23.5t8.5 25t23.5 12l474 35
q13 0 22.5 9t11.5 20l55 315q2 20 -9 33q-7 7 -17 7h-604q-15 0 -25 10.5t-10 25t10 24.5t25 10h604q42 0 69 -31q32 -36 26 -89l-55 -315q-5 -37 -34 -63t-67 -26l-471 -34q-1 -1 -2 -1v0v0zM375 180z" />
    <glyph glyph-name="location" unicode="&#xe634;" 
d="M836 503q0 -82 -277 -479l-47 -66q-13 18 -35 49t-78 114t-98.5 151.5t-77.5 136.5t-35 94q0 88 43.5 163t118 118t162.5 43t162.5 -43t118 -118t43.5 -163zM120 503q0 -31 39 -110t87.5 -158t111 -174t87.5 -131.5t40 -57.5v0h54q15 22 39.5 58t87.5 132t111 175
t87.5 157.5t39.5 108.5q0 107 -52.5 197.5t-142.5 143t-197 52.5t-197 -52.5t-142.5 -143t-52.5 -197.5zM410 503.5q0 42.5 30 72.5t72 30t72 -30t30 -72.5t-30 -72.5t-72 -30t-72 30t-30 72.5zM341 503.5q0 -70.5 50 -120.5t121 -50t121 50t50 120.5t-50 120.5t-121 50
t-121 -50t-50 -120.5z" />
    <glyph glyph-name="right-arrow" unicode="&#xe62d;" 
d="M794 380l-503 503l-61 -63l441 -439l-441 -442l61 -61z" />
    <glyph glyph-name="order1" unicode="&#xe608;" 
d="M831 767h-96v64h-86q-21 29 -57.5 46t-79.5 17t-79.5 -17t-57.5 -46h-86v-64h-96q-52 0 -89.5 -37.5t-37.5 -90.5v-637q0 -52 37.5 -89.5t89.5 -37.5h638q52 0 89.5 37.5t37.5 89.5v637q0 53 -37.5 90.5t-89.5 37.5zM353 767h71q0 26 25.5 45t62.5 19t62.5 -19t25.5 -45
h71v-128h-318v128zM894 2q0 -26 -18.5 -44.5t-44.5 -18.5h-638q-26 0 -44.5 18.5t-18.5 44.5v637q0 27 18.5 45.5t44.5 18.5h96v-127h446v127h96q26 0 44.5 -18.5t18.5 -45.5v-637zM735 130h-446q-13 0 -22.5 -9.5t-9.5 -22.5t9.5 -22.5t22.5 -9.5h446q13 0 22.5 9.5
t9.5 22.5t-9.5 22.5t-22.5 9.5zM735 448h-446q-13 0 -22.5 -9t-9.5 -22.5t9.5 -22.5t22.5 -9h446q13 0 22.5 9t9.5 22.5t-9.5 22.5t-22.5 9zM735 289h-446q-13 0 -22.5 -9.5t-9.5 -22.5t9.5 -22.5t22.5 -9.5h446q13 0 22.5 9.5t9.5 22.5t-9.5 22.5t-22.5 9.5z" />
    <glyph glyph-name="cart" unicode="&#xe613;" 
d="M429 -53q-33 0 -57 24t-24 57t24 57t57 24t57 -24t24 -57t-24 -57t-57 -24zM429 58q-12 0 -21 -9t-9 -21t9 -21t21 -9t21 9t9 21t-9 21t-21 9zM765.5 -53q-33.5 0 -57 24t-23.5 57t23.5 57t57 24t57 -24t23.5 -57t-23.5 -57t-57 -24zM765.5 58q-12.5 0 -21 -9t-8.5 -21
t8.5 -21t21 -9t21 9t8.5 21t-8.5 21t-21 9zM895 169h-576q-18 0 -22 17l-123 495h-112q-9 0 -16 7t-7 16.5t7 16t16 6.5h130q18 0 22 -17l123 -495h538l50 404h-603q-10 0 -16.5 7t-6.5 16.5t6.5 16t16.5 6.5h629q10 0 17 -7.5t6 -18.5l-56 -450q-1 -9 -7.5 -14.5
t-15.5 -5.5z" />
    <glyph glyph-name="personal-round" unicode="&#xe642;" 
d="M512 -128q104 0 199 40.5t163.5 109t109 163.5t40.5 199t-40.5 199t-109 163.5t-163.5 109t-199 40.5t-199 -40.5t-163.5 -109t-109 -163.5t-40.5 -199t40.5 -199t109 -163.5t163.5 -109t199 -40.5v0zM512 832q91 0 174 -35.5t143 -95.5t95.5 -143t35.5 -174t-35.5 -174
t-95.5 -143t-143 -95.5t-174 -35.5t-174 35.5t-143 95.5t-95.5 143t-35.5 174q0 185 131.5 316.5t316.5 131.5v0zM512 696q77 0 131 -53.5t54 -129.5t-54 -130t-131 -54t-131 54t-54 130t54 129.5t131 53.5v0zM512 382q55 0 93.5 38.5t38.5 92.5t-38.5 92.5t-93.5 38.5
t-93.5 -38.5t-38.5 -93t38.5 -92.5t93.5 -38v0zM512 382q109 0 186.5 -77t77.5 -185h-53q0 87 -62 148t-149 61t-149 -61t-62 -148h-53q0 108 77.5 185t186.5 77v0zM512 382z" />
    <glyph glyph-name="integral" unicode="&#xe65b;" horiz-adv-x="1071" 
d="M500 896q-10 0 -22 -0.5t-19.5 -8.5t-7.5 -19.5t9 -19t20 -7.5v0q12 1 20 1q105 0 200 -39.5t163.5 -106t109.5 -158.5t41 -193q0 -126 -61 -234.5t-165 -176.5q-10 -7 -12 -18t4 -20q8 -12 23 -12q9 0 16 5q116 75 183.5 195.5t67.5 260.5q0 112 -45 214t-121.5 176
t-182 117.5t-221.5 43.5zM526 368h3h1h126q6 0 6 6v133q0 4 -7 6h-127q-6 0 -6 -8v-131v-1q-1 -3 0 -4t4 -1zM483.5 806q-98.5 0 -188 -37t-154 -99.5t-103 -149t-38.5 -181.5t38.5 -181.5t103 -149t154 -99.5t188 -37t188 37t154 99.5t103 149t38.5 181.5t-38.5 181.5
t-103 149t-154 99.5t-188 37zM393 263q-3 4 -8 10v-166v-1q-3 -28 -36 -31v0h-1q-35 3 -35 32v119q-10 -25 -22 -43v0q-14 -19 -33 -19q-8 0 -17 4l-1 1q-29 15 -11 49v0q49 78 78 182h-51q-32 0 -32 36v0q3 34 36 36v0h53v46q-9 -2 -21 -3h-1h-21q-6 -1 -10 -1
q-31 0 -36 27v1v0q0 35 38 43v0h18q79 9 118 18h1h8q29 0 37 -28l1 -1v-1q2 -33 -33 -40q-11 -3 -18 -5v0h-9v-56h35q20 -2 27 -19v80q-2 27 10 40t36 12h187q31 1 45 -14q12 -13 11 -38v-190q1 -24 -10 -37q-10 -10 -30 -10h-7h-201h-3v0q-18 0 -27 10q-12 12 -11 37v75
q-7 -18 -28 -18h-34v-9q7 -9 12 -16q44 -55 51 -64v-1q18 -32 -5 -54v-1q-11 -8 -22 -8q-15 0 -28 16v0zM568 230q-40 -73 -103 -140v0q-16 -13 -31 -13v0q-15 0 -29 10v0v1q-24 26 4 53q46 46 90 125v0q14 23 34 23q9 0 19 -5h1q32 -21 15 -54zM738 93v0h-1q-7 -3 -14 -3v0
q-18 0 -30 21q-48 79 -83 125q-10 14 -8 26q2 13 18 24v0q25 15 52 -7l1 -1v0q47 -60 85 -136v0q10 -31 -20 -49z" />
    <glyph glyph-name="storage" unicode="&#xe60a;" 
d="M512 886q-102 0 -195 -40t-160 -107t-107 -160t-40 -195q0 -163 97 -295l38 39q-81 116 -81 256q0 91 35.5 174t95.5 143t143 95.5t174 35.5t174 -35.5t143 -95.5t95.5 -143t35.5 -174t-35.5 -174t-95.5 -143t-143 -95.5t-174 -35.5q-139 0 -254 79l-34 -42
q130 -91 288 -91q102 0 195 40t160 107t107 160t40 195t-40 195t-107 160t-160 107t-195 40v0zM494 635v-233h-233v-54h233v-233h54v233h233v54h-233v233h-54zM494 635z" />
    <glyph glyph-name="warehouse" unicode="&#xe614;" 
d="M950 405l-419 419q-8 8 -19.5 8t-19.5 -8l-129 -129v50q0 11 -8 20t-19 9h-108q-12 0 -19.5 -9t-7.5 -20v-213l-43 -43q-7 -4 -10 -10l-75 -74q-8 -8 -8 -19.5t8 -19.5t19 -8q12 0 20 8l33 33v-338q0 -50 37 -87t87 -37h484q48 0 81.5 36t33.5 88v347l43 -42q8 -8 20 -8
q11 0 19 8t8 19.5t-8 19.5zM254 719h55v-79l-55 -54v133zM562 -9h-115v221h115v-221zM815 61q0 -30 -18 -50t-44 -20h-136v247q0 12 -7.5 20t-18.5 8h-172q-11 0 -19 -8.5t-8 -19.5v-247h-123q-28 0 -49 21t-21 49v392l313 313l303 -304v-401z" />
    <glyph glyph-name="video" unicode="&#xe641;" 
d="M222 77q-10 0 -17 7t-7 16.5t7 16.5t17 7h350q7 18 17 27q21 22 51 22t51 -22v0q13 -17 17 -27h98q10 0 17 -7t7 -16.5t-7 -16.5t-17 -7h-98q-7 -18 -17 -28v0q-21 -21 -51 -21t-51 21l-2 2q-8 8 -15 26h-350zM128 828v0h768q52 0 92 -37v0q36 -39 36 -91v-632
q0 -53 -38 -91l-3 -3q-39 -36 -87 -36h-768q-51 0 -90 39v0q-38 41 -38 91v632q0 53 38 91l3 3q37 34 87 34v0zM896 749v0h-768q-21 0 -34 -13v0q-15 -19 -15 -36v-632q0 -22 15 -34v0v0q15 -15 36 -15h766q21 0 34 13l2 2q15 15 15 34v632q0 19 -15 34v2q-16 13 -36 13v0z
M405 593v0l254 -147q15 -8 19 -23.5t-4 -29.5q-6 -9 -15 -15l-256 -150q-14 -8 -29.5 -3.5t-23.5 18.5q-7 10 -7 19v0v297q0 16 11.5 27t27.5 11q13 3 23 -4v0zM422 491v0v-158q127 72 139 79zM614 100v0v0v0v0q0 -10 7 -17v0v0q6 -6 17 -6t17 6v0q6 7 6 17v0v0v0
q0 12 -6 15v0v0q-6 7 -17 7t-17.5 -6.5t-6.5 -15.5v0z" />
    <glyph glyph-name="personal" unicode="&#xe61a;" 
d="M511 888q121 0 206 -85.5t85 -206t-85 -205.5q-20 -20 -43 -36q92 -35 162 -105q64 -63 99.5 -147t35.5 -177q0 -17 -11.5 -28.5t-28 -11.5t-28 11.5t-11.5 28.5q0 77 -29.5 146.5t-82 122t-122 81.5t-147.5 30h-1q-77 -1 -146.5 -30t-122 -81.5t-82 -122t-29.5 -146.5
q0 -17 -11.5 -28.5t-28 -11.5t-28 11.5t-11.5 28.5q0 93 35.5 177t99.5 147q70 70 162 105q-23 16 -43 36q-85 85 -85 205.5t85 206t206 85.5v0zM661 747q-62 62 -150 62t-150 -62t-62 -150t62 -150t149 -62h1q88 0 150 62t62 150t-62 150z" />
    <glyph glyph-name="qrcode" unicode="&#xe612;" 
d="M455 441v57h-57v56h-56v-113h56h57zM740 384h56v-57h-56v57zM455 384h-113v-57h113v-57h57v171h-57v-57zM342 611v285h-342v-342h342v46v11zM171 611h-114v228h228v-57v-40v-131h-114zM114 782v-114h114v114h-57h-57zM285 213h-285v-341h342v341h-57zM285 60v-131h-228
v227h228v-57v-39zM114 99v-113h114v113h-57h-57zM996 896h-313v-114v-40v-188h341v342h-28zM967 742v-131h-227v74v6v148h227v-57v-40zM796 782v-114h114v114h-57h-57zM398 611h57v-57h-57v57zM285 441h-57v-57h114v57h-57zM114 441h57v-57h-57v57zM57 384h57v-57h-57v57z
M0 498h57v-57h-57v57zM171 384h57v-57h-57v57zM455 213h57v-57h-57v57zM740 213h56v-57h-56v57zM512 156h57v-57h-57v57zM398 99h57v-56h-57v56zM512 -14v57h-57v-114h114v57h-57zM569 -71h57v-57h-57v57zM569 99h57v-56h-57v56zM342 270v-57h113v57h-57h-56zM740 327h-171
v-114h57v57h57v-57h57v57v57zM796 384h57v57h57v57h-170v-57h56v-57zM910 327h57v114h-57v-57v-57zM967 270h-57v57h-57v-57h-57v-57h171v-57h57v171h-57v-57zM853 -14h114v57h57v56h-171v-56v-57zM683 -71h57v-57h-57v57zM853 -71h-57v-57h171v57h-57h-57zM967 -14h57v-57
h-57v57zM740 -14h56v-57h-56v57zM796 43v56h-113v-113h57v57h56zM796 156h57v-57h-57v57zM683 441v57h-57v-57h-57v-57h171v57h-57zM512 498h57v-57h-57v57zM569 554h57v-56h-57v56zM569 611h57v57h-57v57h57v57h-114v-114h-57v-57h57h57zM398 725h57v-57h-57v57zM455 839
h57v-57h-57v57zM512 896h57v-57h-57v57z" />
    <glyph glyph-name="edit" unicode="&#xe61b;" 
d="M986.5 881q11.5 -12 13.5 -26.5t-7 -22.5l-487 -487q-8 -9 -22.5 -7.5t-26.5 13.5t-13.5 26.5t7.5 22.5l486 487q9 9 23.5 7.5t26 -13.5zM874 484v-528q0 -8 -5.5 -14t-14.5 -6h-776q-8 0 -13.5 6t-5.5 14v785q0 8 5.5 14t13.5 6h524v58h-524q-32 0 -55 -23t-23 -55v-785
q0 -32 23 -55t55 -23h776q33 0 55.5 23t22.5 55v528h-58z" />
    <glyph glyph-name="more" unicode="&#xe639;" 
d="M512 268q-10 0 -16 6l-233 233q-7 7 -7 16.5t7 16.5t16.5 7t16.5 -7l216 -216l216 216q7 7 16.5 7t16.5 -7t7 -16.5t-7 -16.5l-233 -233q-6 -6 -16 -6z" />
    <glyph glyph-name="new-add" unicode="&#xe623;" 
d="M1019 385q0 -15 -10 -25.5t-25 -10.5h-944q-15 0 -25 10.5t-10 25.5v0q0 15 10 25.5t25 10.5h944q15 0 25 -10.5t10 -25.5v0zM512 893q15 0 25.5 -10.5t10.5 -24.5v-945q0 -14 -10.5 -24.5t-25.5 -10.5v0q-15 0 -25.5 10.5t-10.5 24.5v945q0 14 10.5 24.5t25.5 10.5v0z
" />
    <glyph glyph-name="level" unicode="&#xe604;" 
d="M21 -112h984q5 0 6.5 1.5t1.5 5.5v985v0q1 0 1 -1v-5v-982q0 -5 -5 -5h-532h-451q-5 0 -5 1v0zM1013 873v7h-986q-4 0 -5 -1t-1 -5v-986q1 -1 7 -1h978q6 0 7 1t1 7q0 546 -1 978zM930 -37h-414h-413q-7 0 -7 7q1 417 0 828q0 6 7 6h828q6 0 6 -6v-828q0 -7 -7 -7v0z
M238 354q0 192 -1 247q0 7 8 7q27 -1 53 0q6 0 6 -7v-179v-251q0 -7 8 -7h97h93q6 0 6 -6q-1 -26 0 -52q0 -6 -6 -6h-132h-126q-7 0 -7 6q1 57 1 248v0zM856 463q-39 -90 -43 -100q-86 -201 -110 -257q-3 -7 -10 -6q-13 1 -29 0q-7 0 -9 6q-30 77 -108 279q-3 8 -12.5 33
t-15.5 39q-1 4 -1 6h51q3 0 5 -5q4 -11 51 -129q18 -45 52 -131l2 -5q25 56 28 62q63 143 90 203q3 5 8 5h51z" />
    <glyph glyph-name="invite" unicode="&#xe653;" 
d="M750 281q10 -8 24 -4.5t22 15.5q5 8 5 24q-4 12 -13 21q-5 3 -17.5 11t-22.5 13t-19 8q43 43 62 91q24 56 24 120q0 125 -88 212.5t-213 87.5t-212 -88.5t-87 -213.5q0 -123 89 -211q-131 -61 -209.5 -182t-78.5 -265q0 -14 9.5 -23t23.5 -9t23 9t9 23q0 134 77 244.5
t202 156.5q72 -41 155 -40.5t152 40.5q50 -18 83 -40v0zM748 578q0 -53 -19 -94q-15 -35 -51 -72q-68 -67 -164.5 -67t-165 68.5t-68.5 164.5t68.5 164t165 68t165.5 -68t69 -164v0zM1000 73l-123 123q-11 10 -26 10t-26 -10q-10 -11 -10 -24q0 -17 10 -25l65 -64h-223
q-14 0 -24.5 -10t-10.5 -24t10.5 -24.5t24.5 -10.5h223l-65 -64q-10 -11 -10 -24q0 -17 10 -24q8 -11 25 -11t24 11l124 123q1 1 3.5 5t4.5 5q4 14 0 27q0 5 -6 11v0v0z" />
    <glyph glyph-name="add-user" unicode="&#xe6a5;" horiz-adv-x="1105" 
d="M819 -26h-810q14 114 88.5 204t179.5 127q-58 33 -93.5 93.5t-35.5 131.5q0 108 78 186t186 78t185.5 -78t77.5 -186q0 -71 -35.5 -131.5t-93.5 -93.5q108 -36 181.5 -126t91.5 -205v0zM1068 438h-108v108q0 15 -10.5 25.5t-25.5 10.5h-36q-15 0 -25.5 -10.5t-10.5 -25.5
v-108h-108q-15 0 -25.5 -10.5t-10.5 -25.5v-36q0 -15 10.5 -25.5t25.5 -10.5h108v-108q0 -15 10.5 -25.5t25.5 -10.5h36q15 0 25.5 10.5t10.5 25.5v108h108q15 0 25.5 10.5t10.5 25.5v36q0 15 -10.5 25.5t-25.5 10.5z" />
    <glyph glyph-name="asc" unicode="&#xe65d;" 
d="M958 132l-448 509l-448 -509h896z" />
    <glyph glyph-name="activity" unicode="&#xe626;" 
d="M1012 197h-500v125h-312v500h437v-125h375l-125 -250zM74.5 -116q-25.5 0 -44 18.5t-18.5 43.5v875q0 26 18.5 44.5t44.5 18.5t44 -18.5t18 -44.5v-875q0 -25 -18.5 -43.5t-44 -18.5z" />
    <glyph glyph-name="manually" unicode="&#xe6a3;" horiz-adv-x="1025" 
d="M633 4v0q-36 0 -76.5 10.5t-66.5 21.5t-72 32l-18 9q-31 14 -62 29t-53.5 26.5t-40 20.5t-27 13.5t-9.5 5.5q-35 16 -48 53t3 73q12 25 35 40t51 15q21 0 40 -9l88 -44q-55 148 -90 210q-13 22 -27.5 38.5t-23.5 23.5t-24 17q-30 20 -41 36q-22 33 -10 70q12 35 46 47
q11 4 23 4q55 0 130 -76q25 -24 58 -74q6 20 22 36t37 23q14 5 28 5q37 0 62 -29q14 25 42 35q14 5 28 5q23 0 43 -13t30 -34q11 9 23 13q12 5 25 5q23 0 41.5 -12.5t25.5 -32.5q11 -30 28.5 -81.5t41 -143.5t19.5 -128q-3 -29 -7.5 -50t-16 -48t-28.5 -47t-46.5 -40
t-69.5 -34q-58 -21 -113 -21v0v0v0zM249 318q-38 0 -54 -35q-11 -23 -2.5 -46.5t31.5 -33.5q87 -47 190 -95l19 -8q45 -22 69.5 -32t61.5 -20t69 -10v0q49 0 102 20q34 12 59.5 29t40.5 33.5t24.5 39.5t13.5 42t7 46q5 40 -25.5 146t-61.5 191q-4 10 -13.5 16t-21.5 6
q-7 0 -13 -2q-11 -5 -22 -16l16 -42q2 -7 -1 -13.5t-9.5 -9t-13.5 0.5t-9 10l-26 71q-5 13 -17 21.5t-26 8.5q-8 0 -16 -3q-18 -6 -26 -24q-8 -17 -2 -35l10 -28q2 -6 -1 -12.5t-9.5 -9t-13 0.5t-9.5 9l-22 60q-5 14 -17 22.5t-26 8.5q-8 0 -16 -3q-20 -7 -33 -25.5
t-4 -43.5l16 -44q6 -15 -9 -22q-15 -6 -23 8v1q-58 108 -100 149q-36 36 -67.5 53.5t-49.5 10.5q-19 -7 -25 -25q-6 -21 7 -40q7 -11 30 -26q17 -11 27 -19t27.5 -27.5t31.5 -44.5q8 -15 18 -34.5t18.5 -39t17.5 -41.5t16.5 -41t14 -37.5t11 -31t8 -22l3.5 -9.5
q4 -11 -5 -19q-8 -7 -19 -2l-126 62q-11 6 -25 6v0v0zM639 12v0q-36 0 -76.5 10.5t-66.5 21.5t-72 33l-19 8l-62 30t-53 26l-40 20t-27 14l-9 5q-35 16 -48.5 53t3.5 73q11 25 34.5 40t51.5 15q20 0 40 -9l87 -43q-54 147 -90 209q-12 22 -26.5 38.5t-23.5 23.5t-25 17
q-30 21 -40 36q-22 34 -10 70q11 35 46 48q11 4 22 4q56 0 131 -76q24 -25 57 -75q7 21 23 36.5t36 22.5q14 5 28 5q38 0 62 -28q15 24 42 34q14 5 28 5q24 0 44 -12.5t30 -34.5q11 9 23 14q12 4 25 4q23 0 41 -12.5t26 -32.5q11 -30 28.5 -81.5t41 -143t19.5 -127.5
q-3 -30 -7.5 -51t-16 -48t-28.5 -46.5t-46.5 -39.5t-69.5 -35q-58 -21 -113 -21v0v0zM264 325q-37 0 -52 -34q-10 -22 -2 -44.5t30 -33.5q57 -32 184 -91l18 -8q44 -21 67 -31t58.5 -19.5t67.5 -9.5v0q47 0 98 19q41 15 68.5 34.5t41.5 45.5t20 48.5t10 56.5
q4 38 -25.5 141.5t-58.5 184.5q-8 21 -34 21q-6 0 -12 -2q-11 -4 -21 -15l15 -41q2 -6 -1 -12.5t-9.5 -9t-12.5 0.5t-9 10l-25 68q-4 13 -16 21.5t-26 8.5q-7 0 -15 -3q-17 -6 -25 -23t-2 -34l10 -27q2 -6 -0.5 -12.5t-9 -9t-13 0.5t-8.5 10l-22 58q-4 13 -15.5 21t-26.5 8
q-7 0 -15 -2q-19 -7 -31.5 -25.5t-3.5 -41.5l15 -42q6 -15 -8.5 -21.5t-22.5 7.5v1q-56 104 -96 144q-35 35 -65 52t-48 10q-18 -6 -24 -24q-6 -20 6 -39q7 -10 29 -25q16 -11 26 -18.5t27 -26.5t30 -43q10 -16 20.5 -38t20 -45t18.5 -46t17 -44t14 -37t10 -27t4 -12
q3 -10 -5 -18q-9 -7 -19 -2l-121 60q-12 5 -25 5v0v0z" />
    <glyph glyph-name="goods" unicode="&#xe607;" 
d="M1020 541v0l-507 253l-508 -253v-505l508 -253l507 253v505v0zM513 733l381 -191l-145 -73l-384 190zM299 623l389 -186l-175 -85l-382 189zM68 477h21l-21 1v31l413 -205v-442l-413 205v410zM957 446v-379l-413 -205v442l413 205v-63z" />
    <glyph glyph-name="filtrate" unicode="&#xe618;" 
d="M868 848h-720q-37 0 -67 -17t-45 -44.5t-4 -66.5t51 -79l335 -333v-288t27.5 -51t70.5 -28q40 0 63 28t22 55v23.5v44v55.5v59v52.5v38v14.5q35 34 88.5 85.5t153.5 155t123 140.5q17 23 23 49t-1 50.5t-37.5 41t-82.5 15.5zM875 653l-326 -327l1 -342l-80 40l-1 302
q-311 310 -360 359q-25 26 -25.5 54.5t24.5 47t69 18.5q342 1 691 1q70 0 70.5 -44t-63.5 -109z" />
    <glyph glyph-name="data-mapping" unicode="&#xe677;" 
d="M981 43h-938q-18 0 -30.5 12.5t-12.5 29.5v598q0 17 12.5 29.5t30 12.5t30 -12.5t12.5 -29.5v-555h896q18 0 30.5 -12.5t12.5 -30t-12.5 -30t-30.5 -12.5v0zM961 540l-229 -229q-12 -12 -29 -12t-30 12l-4 7l-200 199l-206 -206q-12 -12 -29.5 -12t-29.5 12t-12 29.5
t12 29.5l232 232q0 1 1 2.5t2 1.5q12 13 30 13t30 -13l0.5 -0.5l0.5 -0.5l204 -204l201 201q1 1 1.5 2.5t1.5 1.5q13 13 30.5 13t30 -12.5t12.5 -30.5t-12 -30z" />
    <glyph glyph-name="group" unicode="&#xe6b2;" horiz-adv-x="1026" 
d="M961 250q-59 85 -152 122q41 29 65 74q29 52 29 113q0 92 -62 157.5t-151 65.5q-12 0 -21 -8.5t-9 -21t9 -21.5t21 -9q63 0 108 -48t45 -115.5t-45 -115.5t-108 -48q-12 0 -21 -8.5t-9 -21.5v0q0 -13 9 -21.5t21 -8.5q114 0 194.5 -86t80.5 -207q0 -12 8.5 -21t21 -9
t21.5 9t9 21q0 115 -64 208v0v0zM648 301q-48 34 -103 53q58 35 91.5 94t33.5 127q0 107 -76 183t-183 76t-182.5 -76t-75.5 -183q0 -74 39 -137q33 -52 86 -85q-56 -19 -104 -53q-53 -37 -92 -89q-82 -109 -82 -246q0 -13 9 -22t21.5 -9t21.5 9t9 22q0 144 102 247t246 103
q4 -1 9 0l2 1q140 -3 239 -103q103 -102 103 -247q0 -13 8.5 -22t21 -9t21.5 9t9 22q0 137 -82 246q-39 52 -92 89v0v0zM411 773q82 0 140.5 -58t58.5 -140t-58.5 -140t-140 -58t-140 58t-58.5 140t58.5 140t139.5 58v0v0zM411 773z" />
    <glyph glyph-name="cancel" unicode="&#xe606;" 
d="M693.5 569q-13.5 14 -33.5 14t-34 -14l-112 -110l-110 112q-14 14 -33.5 14t-33.5 -13.5t-14.5 -33t13.5 -33.5l111 -113l-113 -110q-14 -14 -14 -33.5t13.5 -33.5t33.5 -14t34 13l112 111l110 -113q14 -14 33.5 -14t33.5 14t14.5 33.5t-13.5 33.5l-111 112l113 111
q14 13 14 33t-13.5 34zM873 745.5q-96 97.5 -225.5 133t-260 2.5t-228 -129.5t-133 -226t-2 -259.5t129.5 -228t225.5 -133.5t260 -2t228 129.5t133 225.5t2 260t-129.5 228zM801 99.5q-79 -78.5 -185 -105.5t-211.5 2t-183.5 108.5t-105 185t2 211t108 183.5t185 105
t211.5 -1.5t183.5 -108t105 -185.5t-2 -211t-108 -183.5z" />
    <glyph glyph-name="delivery1" unicode="&#xe638;" 
d="M969 576l-58 52q-48 44 -113 44h-158v80q0 46 -33 79t-79 33h-416q-46 0 -79 -33t-33 -79v-720h128q0 -53 37.5 -90.5t90.5 -37.5t90.5 37.5t37.5 90.5h256q0 -53 37.5 -90.5t90.5 -37.5t90.5 37.5t37.5 90.5h128v419q0 75 -55 125zM926 528q34 -31 34 -77v-99h-128v250
q20 -7 36 -22zM256 -32q-26 0 -45 18.5t-19 45t19 45.5t45 19t45 -19t19 -45.5t-19 -45t-45 -18.5zM576 96h-209q-17 29 -46.5 46.5t-64.5 17.5t-64.5 -17.5t-46.5 -46.5h-81v656q0 20 14 34t34 14h416q20 0 34 -14t14 -34v-656zM768 -32q-26 0 -45 18.5t-19 45t19 45.5
t45 19t45 -19t19 -45.5t-19 -45t-45 -18.5zM879 96q-17 29 -46.5 46.5t-64.5 17.5t-64.5 -17.5t-46.5 -46.5h-17v512h128v-320h192v-192h-81z" />
    <glyph glyph-name="stock" unicode="&#xe63b;" 
d="M761 -128h-4l-2 1l-2 1h-2l-2 2l-1 1l-225 122q-8 5 -11 13q-3 -8 -12 -13l-229 -125l-3 -1l-4 -1h-2h-2l-4 1h-3l-3 2l-227 124q-9 5 -12 14h-1v5v4v301q0 18 16 25l239 113v295q0 17 16 24l245 116v-3q5 0 10 -3l218 -110q16 -6 16 -24v-293v-3q5 0 11 -2l218 -111
q16 -6 16 -23v-310h-2q-3 -10 -12 -15l-229 -125l-3 -1l-4 -1h-2h-2zM790 -60l175 95v243l-175 -96v-242zM290 -60l174 95v243l-174 -96v-242zM736 -58v242l-72 40v-54l-61 29v58l-41 23v-243zM236 -58v242l-73 40v-54l-60 29v58l-42 23v-243zM762 229l171 93l-67 34
l-172 -90zM262 229l171 93l-67 34l-173 -90zM129 302l170 88l-30 16l-177 -84zM630 302l170 88l-31 16l-176 -84zM492 368v242l-73 40v-54l-60 29v58l-42 23v-242zM546 372l175 96v243l-175 -96v-243zM517 661l171 96l-67 34l-173 -92zM397 728l170 90l-41 21l-177 -86z" />
    <glyph glyph-name="recharge-record" unicode="&#xe627;" 
d="M989 680q0 20 -13.5 33.5t-32.5 13.5h-863q-20 0 -33.5 -13.5t-13.5 -33.5v-92h956v92zM33 517v-426q0 -20 13.5 -33.5t33.5 -13.5h863q19 0 32.5 13.5t13.5 33.5v426h-956v0zM201.5 142q-32.5 0 -55.5 23t-23 55.5t23 55.5t55.5 23t56 -23t23.5 -55.5t-23.5 -55.5
t-56 -23z" />
    <glyph glyph-name="brand-mall" unicode="&#xe601;" 
d="M856 459l-15 113l-114 -221q62 -37 99.5 -102t37.5 -141q0 -78 -39 -143l116 18l20 66zM377 361h-111v37q5 0 13.5 0.5t32.5 4.5t45 12t43.5 24.5t35.5 40.5h132l-307 -604l130 21q-31 27 -53 62l77 150q0 -68 48 -116t116 -48t116 48t48 116t-48 116t-116 48
q-8 0 -28 -2l63 120l59 116h-337v117h498l-20 141l-215 -34q-26 71 -73.5 113t-119.5 35q-37 -4 -64 -24.5t-41.5 -51.5t-21.5 -61.5t-8 -63.5l-193 -30l75 -728zM576 163q22 0 38 -16t16 -38t-16 -38t-38 -16t-38 16t-16 38t16 38t38 16zM415 841q30 4 56 -6t42.5 -29
t27 -40t12.5 -41l-222 -37q-2 21 0.5 43.5t10.5 46.5t27 41.5t46 21.5z" />
    <glyph glyph-name="call" unicode="&#xe625;" 
d="M595 858q-3 1 -7 1q-16 1 -29 -9t-16 -26q-4 -18 6 -33.5t28 -18.5q70 -15 128.5 -54.5t97.5 -99.5q82 -124 52 -268q-4 -18 6.5 -33.5t28.5 -19.5q3 0 7 -1q14 0 26 8q15 10 19 28q24 118 -13.5 231t-126 192t-207.5 103v0v0v0zM672 192q61 -39 106 -85q45 -47 44 -81
t-40 -70q-9 -9 -23 -20t-54 -26t-81 -15q-39 0 -79 12q-41 12 -83 38q-82 48 -148 113t-126 157q-48 73 -80 147.5t-43.5 132.5t-15 89.5t-3.5 53.5q1 44 15 83t32 62t41.5 42.5t35.5 26.5t22 11q30 14 54 14q12 0 23 -3q31 -10 47 -45q29 -62 48 -155q2 -13 2 -24t-1.5 -19
t-7 -15t-9.5 -11.5t-12 -10t-13 -8t-14 -7.5l-2 -1q-59 -24 -69 -29q-8 -3 -11 -10.5t-1 -15.5q36 -109 105 -215q67 -104 151 -182q6 -5 15 -5h1q10 1 15 8q20 25 37 42q41 38 76 38q10 0 19.5 -2.5t26.5 -14.5v0v0v0zM485 495q-18 4 -28 19t-6 33q3 16 16 26t29 10
q4 0 7 -1q77 -16 120.5 -82t27.5 -143q-3 -18 -19 -28q-11 -8 -26 -8q-4 1 -7 1q-18 4 -28 19.5t-6 33.5q8 41 -15 76t-65 44v0v0v0zM531 634q-17 4 -27.5 19t-6.5 33q3 16 16 26t29 10q4 -1 7 -1q63 -13 115 -48.5t87 -88.5q73 -111 46 -240q-3 -18 -19 -28q-12 -8 -26 -7
q-3 0 -7 1q-18 3 -28 18.5t-7 33.5q20 93 -32.5 173t-146.5 99v0v0zM531 634z" />
    <glyph glyph-name="photo" unicode="&#xe68e;" 
d="M512 486q-64 0 -109 -45t-45 -108.5t45 -108.5t109 -45t109 45t45 108.5t-45 108.5t-109 45zM922 640h-123q-13 0 -25 8.5t-16 20.5l-32 95q-4 12 -15.5 21t-24.5 9h-348q-13 0 -24.5 -9t-16.5 -21l-31 -95q-4 -12 -16 -20.5t-25 -8.5h-123q-42 0 -72 -30t-30 -72v-461
q0 -42 30 -72.5t72 -30.5h820q42 0 72 30.5t30 72.5v461q0 42 -30 72t-72 30zM512 77q-106 0 -181 75t-75 181t75 181t181 75t181 -75t75 -181t-75 -181t-181 -75zM886 466q-15 0 -25.5 10.5t-10.5 25.5t10.5 25.5t25.5 10.5t25.5 -10.5t10.5 -25.5t-10.5 -25.5t-25.5 -10.5
z" />
    <glyph glyph-name="add-user-line" unicode="&#xe61e;" 
d="M782.5 257.5q9.5 9.5 9.5 22.5t-9 23q-79 80 -185 113q55 36 87 94t32 126q0 107 -75.5 183.5t-182.5 76.5t-183 -76.5t-76 -183.5q0 -68 32.5 -126t87.5 -94q-141 -45 -230.5 -166t-89.5 -274v-38q1 -18 1 -34q0 -13 9.5 -22.5t22.5 -9.5t22.5 9.5t9.5 22.5q0 19 -1 35
v37q0 108 53 200t144 145t198 53q79 0 151 -30t128 -86q9 -10 22 -10t22.5 9.5zM264 635.5q0 81.5 57 139t137.5 57.5t137.5 -57.5t57 -139t-57 -139t-137.5 -57.5t-137.5 57.5t-57 139zM992 91h-117v114q0 13 -9.5 22.5t-23 9.5t-22.5 -9.5t-9 -22.5v-114h-118
q-13 0 -22.5 -9t-9.5 -22.5t9.5 -23t22.5 -9.5h118v-123q0 -13 9 -22.5t22.5 -9.5t23 9.5t9.5 22.5v123h117q13 0 22.5 9.5t9.5 23t-9.5 22.5t-22.5 9z" />
    <glyph glyph-name="zhiyindan" unicode="&#xe66a;" 
d="M26 727l170 -155l-170 -173h450v-492h90v492h271l169 137q10 10 9 25q0 13 -10 22l-168 144h-271v82q0 1 0.5 7.5t0.5 11t-0.5 12.5t-2 13.5t-4 13t-6 12.5t-9 10t-12.5 7t-17 2q-40 0 -40 -92l-1 -79h-449z" />
    <glyph glyph-name="deal-rebate" unicode="&#xe6ca;" 
d="M191 746h359h362q18 0 28.5 10t10.5 29v68q0 18 -10.5 28.5t-28.5 10.5h-724q-17 0 -27.5 -10.5t-10.5 -28.5v-32.5v-32.5q0 -42 41 -42zM702 277q0 95 -46.5 176t-126.5 128.5t-173 47.5q-97 1 -179 -45.5t-129.5 -127.5t-47.5 -177q0 -95 47 -176t127.5 -128t175.5 -47
t176 46.5t128.5 127.5t47.5 175zM349 -9q-118 1 -202 85.5t-83 203.5q0 119 84.5 202.5t203 83t202.5 -84.5t84 -202q0 -120 -84.5 -204t-204.5 -84zM351 534q-104 0 -179.5 -74.5t-75.5 -177.5q-1 -107 73.5 -182.5t180.5 -76.5q105 0 180.5 74.5t75.5 180t-74 180.5
t-181 76zM472 273v-42h-81v-24h81v-42h-81v-52h-78v52h-84v42h84v24h-84v42h60l-69 121h87l44 -95l44 95h87l-67 -121h57zM1024 -25q0 22 -10 32.5t-33 10.5h-130h-181q-47 -58 -111.5 -96t-139.5 -50h568q16 0 26.5 10t10.5 27v66v0zM762 309h87h87h49q18 0 28.5 10
t10.5 28v68q0 40 -40 40h-261q33 -69 39 -146zM878 565v70q0 18 -10.5 28t-28.5 10h-366q97 -30 171 -104q18 -19 35 -42h162q17 1 27 11t10 27zM916 236h-155q-8 -77 -43 -146q161 0 199 1q14 0 24 10t10 24q1 39 0 77q0 14 -10 24t-25 10z" />
    <glyph glyph-name="sub-recharge" unicode="&#xe635;" 
d="M924 384h68q0 98 -37 185.5t-103.5 154t-154 103.5t-185.5 37t-185.5 -37t-154 -103.5t-103.5 -154t-37 -185.5t37 -185.5t103.5 -154t154 -103.5t185.5 -37q105 0 199 43q84 39 148 105l2 -1l49 -37l6 181l-163 -65l50 -37q-53 -54 -121 -84q-80 -37 -171 -37
q-83 0 -158.5 32t-132.5 89t-89 132t-32 159t32 159t89 132t132 89t159 32t159.5 -32t132.5 -89t89 -132t32 -159zM619 578l-70 -109q-28 -43 -34 -58h-1q-18 33 -105 167h-66l123 -177h-101v-39h118v-54h-118v-39h118v-79h59v79h113v39h-113v54h113v39h-97l124 177h-63z
" />
    <glyph glyph-name="poster" unicode="&#xe63d;" 
d="M190 513h284q16 0 27 11t11 26v0q0 16 -11 27t-27 11h-284q-16 0 -27 -11t-11 -27v0q0 -15 11 -26t27 -11zM948 892h-872q-30 0 -51 -21t-21 -51v-872q0 -31 21 -52t51 -21h872q31 0 52 21t21 52v872q0 30 -21 51t-52 21zM948 -52h-16l-266 281l-140 -122l-209 194
l-209 -194l-32 -36v749h872v-872v0zM190 652h172q16 0 27 11t11 27v0q0 15 -11 26t-27 11h-172q-16 0 -27 -11t-11 -26v0q0 -16 11 -27t27 -11zM739.5 406q56.5 0 96 40t39.5 96.5t-39.5 96t-96 39.5t-96.5 -39.5t-40 -96t40 -96.5t96.5 -40zM190 376h220q16 0 27 11t11 26
v0q0 16 -11 27t-27 11h-220q-16 0 -27 -11t-11 -27v0q0 -15 11 -26t27 -11z" />
    <glyph glyph-name="faq" unicode="&#xe60e;" 
d="M509 891q-103 0 -197 -40t-161.5 -108t-107.5 -161.5t-40 -196.5t40 -196.5t107.5 -161.5t161.5 -108t197 -40t196.5 40t161.5 108t108 161.5t40 196.5t-40 196.5t-108 161.5t-161.5 108t-196.5 40v0zM509 -26q-112 0 -206.5 55t-149.5 149.5t-55 206.5t55 206.5
t149.5 149.5t206.5 55t206.5 -55t149.5 -149.5t55 -206.5t-55 -206.5t-149.5 -149.5t-206.5 -55v0zM430 50h113v104h-113v-104zM519 673q-190 9 -229 -166l95 -27q18 110 125 107q80 -6 89 -77q9 -62 -74 -119q-86 -62 -83 -151v-24h89v21q-3 50 56 89q116 83 113 181
q-15 157 -181 166v0zM519 673z" />
    <glyph glyph-name="commodity" unicode="&#xe620;" horiz-adv-x="1026" 
d="M379 896h-260q-50 0 -84.5 -34.5t-34.5 -84.5v-261q0 -49 35 -84.5t84 -35.5h261q49 0 84.5 35t35.5 85v261q-2 50 -37 84.5t-84 34.5zM439 517q0 -24 -17 -41.5t-42 -17.5h-261q-24 0 -41 17.5t-17 41.5v260q0 24 17 41t41 17h261q25 0 42 -17t17 -41v-260zM379 370
h-260q-49 0 -84 -35t-35 -84v-261q0 -49 35 -83.5t84 -34.5h261q49 0 84.5 35t35.5 84v260q-2 50 -37 84.5t-84 34.5zM439 -9q0 -24 -17 -41t-42 -17h-261q-24 0 -41 17t-17 41v260q0 24 17 41.5t41 17.5h261q25 0 42 -17.5t17 -41.5v-260zM905 896h-260q-49 0 -84 -35
t-35 -84v-261q0 -49 35 -84.5t84 -35.5h261q49 0 84.5 35t35.5 85v261q-2 50 -37 84.5t-84 34.5zM965 517q0 -24 -17 -41.5t-42 -17.5h-261q-24 0 -41.5 17.5t-17.5 41.5v260q0 24 17.5 41t41.5 17h261q25 0 42 -17t17 -41v-260zM940 15q41 58 41 127q0 94 -67 160t-160 66
t-159.5 -66.5t-66.5 -159.5t66.5 -160t159.5 -67q75 0 137 47l54 -57q11 -11 26.5 -11t24.5 9q10 8 12 26q0 15 -9 27zM585 144q0 69 49 118t118.5 49t118.5 -49t49 -118q0 -59 -37 -106q-6 -3 -9 -6q-7 -5 -10 -14q-48 -44 -112 -44q-69 2 -118 51t-49 119z" />
    <glyph glyph-name="arrow_right" unicode="&#xe60c;" 
d="M332 -92l387 405q5 6 5 14t-5 14l-387 405q-9 9 -20.5 4t-11.5 -18v-810q0 -13 11.5 -18t20.5 4z" />
    <glyph glyph-name="security-management" unicode="&#xe600;" 
d="M950 813q-54 -8 -127 -8q-224 0 -314 91q-90 -90 -319 -90q-68 0 -118 7q-1 -42 -2 -107t4 -191t19 -164q33 -84 93 -174t122 -155t118.5 -107.5t84.5 -42.5q27 0 83.5 42t119 107t124.5 155t94 173q15 39 19.5 165t2.5 191.5t-4 107.5v0v0zM889 614q0 -199 -17 -241
q-29 -74 -83 -154q-50 -74 -112 -141q-56 -62 -109 -103q-36 -28 -57 -37q-21 8 -57 36q-52 41 -108 103q-61 68 -110 142q-54 81 -82 155q-8 21 -13 90q-5 60 -6 150q-1 64 0 129q29 -2 55 -2q103 0 184 19q79 18 134 53q55 -36 133 -54q80 -19 182 -19q31 0 65 2
q1 -66 1 -128v0zM720 497h-164v164q0 6 -4 10t-10 4h-60q-6 0 -10 -4t-4 -10v-164h-164q-6 0 -10 -4t-4 -10v-60q0 -5 4 -9.5t10 -4.5h164v-164q0 -5 4 -9.5t10 -4.5h60q6 0 10 4.5t4 9.5v164h164q6 0 10 4.5t4 9.5v60q0 6 -4 10t-10 4v0zM720 497z" />
    <glyph glyph-name="local-warehouse" unicode="&#xe652;" horiz-adv-x="1148" 
d="M1107 446q0 4 -1 7l-114 392q-6 19 -25 19h-765q-18 0 -24 -17l-144 -392q-2 -4 -2 -9q0 -38 23 -68t58 -42v-303q0 -53 39 -91t93 -38h650q54 0 92.5 38t38.5 91v303q36 12 58.5 42t22.5 68zM711 -44h-282v175q0 32 23 54.5t56 22.5h124q32 0 55.5 -22.5t23.5 -54.5
v-175zM895 -44h-132v175q0 53 -38.5 91t-92.5 38h-124q-54 0 -93 -38t-39 -91v-175h-131q-33 0 -56 22.5t-23 54.5v297q61 7 91 60q15 -28 43 -44.5t61 -16.5t61 16.5t43 44.5q16 -28 44 -44.5t61 -16.5t61 16.5t43 44.5q16 -28 44 -44.5t61 -16.5t61 16.5t43 44.5
q30 -53 91 -60v-297q0 -32 -23.5 -54.5t-55.5 -22.5zM988 380q-28 0 -48 19.5t-20 46.5q0 11 -7.5 18.5t-18.5 7.5q-5 0 -11 -2q-5 2 -11 2q-11 0 -18.5 -7.5t-7.5 -18.5q0 -27 -19.5 -46.5t-47.5 -19.5t-47.5 19.5t-19.5 46.5q0 11 -8 18.5t-19 7.5q-5 0 -11 -2q-5 2 -11 2
q-11 0 -18.5 -7.5t-7.5 -18.5q0 -27 -19.5 -46.5t-47.5 -19.5t-47.5 19.5t-19.5 46.5q0 11 -8 18.5t-19 7.5q-5 0 -11 -2q-5 2 -10 2q-11 0 -19 -7.5t-8 -18.5q0 -27 -19.5 -46.5t-47.5 -19.5t-47.5 19.5t-19.5 46.5q0 11 -8 18.5t-19 7.5q-5 0 -10 -2q-6 2 -11 2
q-11 0 -19 -7.5t-8 -18.5q0 -27 -19.5 -46.5t-47.5 -19.5q-27 0 -46 18t-21 44l136 370h726l108 -369q-2 -26 -21 -44.5t-46 -18.5z" />
    <glyph glyph-name="agent-upgrade" unicode="&#xe609;" 
d="M793 485h-153v-285q0 -5 -3 -8.5t-8 -3.5h-236q-4 0 -7.5 3.5t-3.5 8.5v285h-152l-4 4q-10 10 0 20l275 275q10 10 20 0l275 -275q10 -10 0 -20zM382 116q0 13 9.5 22.5t22.5 9.5h194q13 0 22.5 -9.5t9.5 -22.5t-9.5 -22.5t-22.5 -9.5h-194q-13 0 -22.5 9.5t-9.5 22.5z
M422 12q0 13 9.5 22.5t22.5 9.5h114q13 0 22.5 -9.5t9.5 -22.5t-9.5 -22.5t-22.5 -9.5h-114q-13 0 -22.5 9.5t-9.5 22.5z" />
    <glyph glyph-name="zhiyin" unicode="&#xe651;" 
d="M451 419q-207 0 -210 -3l-133 -110q-8 -8 -8 -18q-1 -13 7 -21q132 -123 134 -124h210v-239q0 -13 9.5 -22.5t23.5 -9.5h53q14 0 23.5 9.5t9.5 22.5v239h240q0 1 27 0q43 -2 44 0l-134 144q133 127 134 129q-155 2 -311 2v40h215l135 124q8 8 7 21q0 10 -8 18l-134 110
q-2 3 -215 3v130q0 13 -9.5 22.5t-23.5 9.5h-53q-14 0 -23.5 -9.5t-9.5 -22.5v-131l-305 -2q0 -1 33.5 -33l67 -64l33.5 -32l-134 -144q-3 -1 9 -1q9 0 35 1q27 1 27 0h234v-39z" />
    <glyph glyph-name="siblings" unicode="&#xe615;" 
d="M343 380q-142 -44 -232 -173t-90 -289q0 -14 10 -24t24 -10t24 10t10 24q0 138 77 248.5t198 148.5q13 4 19.5 16.5t2.5 26t-16.5 20t-26.5 2.5v0zM556 876q-106 0 -181.5 -75t-75.5 -181.5t75.5 -181.5t181.5 -75t181 75t75 181.5t-75 181.5t-181 75zM556 431
q-78 0 -133.5 55.5t-55.5 133t55.5 133t133.5 55.5t133 -55.5t55 -133t-55 -133t-133 -55.5zM839 -67l171 171q10 10 10 24.5t-10 24.5l-171 171q-10 10 -24.5 10t-24.5 -10t-10 -24t10 -24l113 -113h-328q-14 0 -24 -10t-10 -24.5t10 -24.5t24 -10h328l-113 -112
q-10 -10 -10 -24.5t10 -24.5t24.5 -10t24.5 10v0v0z" />
    <glyph glyph-name="performance" unicode="&#xe6a9;" 
d="M907 884h-790q-44 0 -74.5 -30.5t-30.5 -74.5v-790q0 -44 30.5 -74.5t74.5 -30.5h790q44 0 74.5 30.5t30.5 74.5v790q0 44 -30.5 74.5t-74.5 30.5zM946 -11q0 -16 -11.5 -27.5t-27.5 -11.5h-790q-16 0 -27.5 11.5t-11.5 27.5v790q0 16 11.5 27.5t27.5 11.5h790
q16 0 27.5 -11.5t11.5 -27.5v-790zM835 143h-646q-14 0 -23.5 -9.5t-9.5 -23t9.5 -23t23.5 -9.5h646q14 0 23.5 9.5t9.5 23t-9.5 23t-23.5 9.5zM867 666q-1 3 -2 5t-3 5q-2 4 -3 4l-1 2q-2 1 -5 3t-6 3q-2 1 -6 2h-6h-194q-13 0 -22.5 -9.5t-9.5 -23t9.5 -23t22.5 -9.5h121
l-220 -244l-194 180l-184 -205q-9 -10 -8 -23.5t11 -22.5q9 -8 22 -8q14 0 24 10l139 155l194 -179l257 284v-130q0 -13 9.5 -23t23 -10t23 10t9.5 23v216q0 3 -1 8z" />
    <glyph glyph-name="level1" unicode="&#xe611;" 
d="M890 525q0 99 -48.5 183t-132.5 132.5t-183 48.5t-183 -48.5t-132.5 -132.5t-48.5 -183q0 -83 35 -156t97 -124v-366l233 115l232 -115v365q61 51 96 124.5t35 156.5zM526 292q-96 0 -164.5 68t-68.5 165q0 96 68 164.5t165 68.5q96 0 164.5 -68t68.5 -165t-68.5 -165
t-164.5 -68z" />
    <glyph glyph-name="settlement" unicode="&#xe6ce;" 
d="M654 458q11 0 18 7t7 17.5t-7 17.5t-18 7h-87v25q0 4 -1 8l104 128q6 8 5 18t-9 16.5t-18 5.5t-17 -9l-93 -114l-101 115q-7 8 -17 8.5t-18 -6.5t-8.5 -17t6.5 -18l118 -134v-0.5v-0.5v-25h-100q-10 0 -17.5 -7t-7.5 -17.5t7.5 -17.5t17.5 -7h100v-25h-75
q-10 0 -17.5 -7.5t-7.5 -17.5t7.5 -17.5t17.5 -7.5h75v-87q0 -10 7 -17.5t17.5 -7.5t17.5 7.5t7 17.5v87h50q10 0 17.5 7.5t7.5 17.5t-7.5 17.5t-17.5 7.5h-50v25h87v0zM138 408q2 -10 10.5 -16t18.5 -4t16 10.5t4 18.5q-1 7 -2 13q-21 149 71 267q59 76 146.5 110.5
t180.5 21.5t169 -72q107 -84 130 -217.5t-50 -249.5q-6 -8 -3.5 -18t10.5 -16q7 -4 14 -4q13 0 21 12q55 86 62.5 186t-33 191.5t-121.5 154.5q-86 68 -192 82.5t-205.5 -25t-167.5 -125.5q-51 -65 -72 -143.5t-10 -161.5q2 -7 3 -15zM972 127l-4 1q-72 19 -121 51
q-43 29 -104 59t-99 30q-5 0 -9 -1q-28 -3 -39 -25q-14 -28 7 -67l2 -4l48 -60q-45 3 -113 8q-53 3 -108.5 24.5t-100 52.5t-78.5 61t-58 59q-21 26 -49.5 41.5t-53.5 15.5q-30 0 -46 -21q-21 -28 -5 -83q15 -65 46 -122t66 -94.5t78.5 -68.5t78 -48t70 -29.5t49 -15.5
t19.5 -5h5h512q10 0 17.5 7.5t7.5 17.5v192q0 19 -18 24v0zM940 -64h-485q-11 2 -26 6t-47.5 16t-63 27.5t-67.5 43.5t-67 61.5t-56 83.5t-39 107v1q-10 32 -3 40q1 2 6 2q13 0 31.5 -11t33.5 -29q26 -31 63 -64t86 -67t110 -57t121 -27q149 -10 169 -12q16 -2 24.5 12.5
t-2.5 27.5l-82 103q-5 10 -5 18v0h3q24 0 77 -24.5t99 -55.5q50 -33 120 -54v-148v0z" />
    <glyph glyph-name="pending-review" unicode="&#xe62c;" 
d="M259 703h512v-64h-512v64zM257 574h512v-64h-512v64zM257 446h329v-64h-329v64zM257 318h138v-64h-138v64zM899 896h-768q-27 0 -45.5 -18.5t-18.5 -45.5v-896q0 -27 18.5 -45.5t45.5 -18.5h299v64h-299v896h768v-410h64v410q0 27 -19 45.5t-45 18.5v0zM759.5 338
q-96.5 0 -165 -68t-68.5 -164.5t68.5 -165t165 -68.5t165 68.5t68.5 165t-68.5 164.5t-165 68zM759.5 -70q-72.5 0 -123.5 51.5t-51 123.5t51 123.5t123.5 51.5t123.5 -51.5t51 -123.5t-51 -123.5t-123.5 -51.5zM789 117v105q0 12 -8.5 20.5t-20.5 8.5t-21 -8.5t-9 -20.5
v-117q0 -12 9 -20l58 -59q9 -8 21 -8t20.5 8.5t8.5 20.5t-9 20z" />
    <glyph glyph-name="selected" unicode="&#xe61d;" horiz-adv-x="1476" 
d="M1381 889q13 3 27 -2t20 -9t21 -20t16 -17v-41q-24 -29 -51.5 -58t-67 -67.5t-55.5 -54.5l-265.5 -265.5t-347.5 -348.5q-14 -13 -37.5 -38.5t-44 -45.5t-42.5 -34h-45q-77 71 -218 208t-205 197l-8 8l-8.5 8.5l-8 8l-8.5 8.5t-7.5 8t-8 9.5t-6.5 9t-6.5 10t-6 9.5
t-5.5 11v19q7 14 11 22.5t13.5 18.5t20.5 14q19 8 39 4.5t35 -16.5q38 -31 100 -94t83 -83q112 -104 215 -211q518 517 767 768q53 50 84 64z" />
    <glyph glyph-name="team" unicode="&#xe6e0;" 
d="M986 -75q-14 0 -24 10t-10 24q0 95 -46.5 175.5t-127.5 127.5t-176 47t-175.5 -47t-127.5 -127.5t-47 -175.5q0 -14 -9.5 -24t-23.5 -10t-24 10t-10 24q0 108 52.5 202t142.5 151q-5 -2 -11 -2q-123 0 -210 -87t-87 -210q0 -14 -10 -24t-24 -10t-24 10t-10 24
q0 112 64.5 205.5t169.5 134.5q-47 32 -73.5 82t-26.5 107q0 96 67.5 163.5t163.5 67.5q13 0 22.5 -9t10.5 -22q37 44 89 68.5t111 24.5q109 0 186 -76.5t77 -185.5q0 -67 -33 -126t-89 -95q124 -45 200.5 -153t76.5 -240q0 -14 -10 -24t-24 -10zM402 344q0 -15 -10 -25
q33 20 70 33q-57 36 -89.5 95t-32.5 126q0 72 37 134q-4 -1 -8 -1q-68 0 -116 -48t-48 -115.5t48 -115.5t116 -48q14 0 23.5 -10t9.5 -24v-0.5v-0.5zM602.5 768q-80.5 0 -138 -57t-57.5 -138t57.5 -138t138 -57t138 57t57.5 138t-57.5 138t-138 57z" />
    <glyph glyph-name="add-agent" unicode="&#xe691;" 
d="M901 674q0 34 -23.5 57.5t-57.5 23.5h-731q-34 0 -58 -23.5t-24 -57.5v-485q0 -34 24 -58t58 -24h528q0 118 83 201.5t201 83.5v282v0zM432 627q37 -27 67 -54l-47 -47q-20 22 -64 59zM229 232h-68v184q-19 -26 -38 -51q-4 16 -7 48q-5 26 -7 40q54 76 85 179l69 -22
q-16 -42 -34 -83v-295v0zM520 349q-6 -23 -11 -56q-15 -64 -67 -63q-58 0 -88 56q-25 42 -35 149l-73 -9l-9 69l76 9q-6 73 -8 128h69q0 -18 4 -56q1 -41 3 -64l130 16l7 -68l-132 -15q8 -86 27 -120q12 -29 24 -25q13 -2 17 28q5 21 8 56q7 -2 20 -7q30 -10 41 -13
q-2 -6 -3 -15zM975 177h-77v76q0 15 -10 25.5t-25 10.5t-25.5 -10.5t-10.5 -25.5v-76h-76q-15 0 -25.5 -10.5t-10.5 -25.5t10.5 -25t25.5 -10h76v-77q0 -14 10.5 -24.5t25.5 -10.5t25 10.5t10 24.5v77h77q14 0 24.5 10t10.5 25t-10.5 25.5t-24.5 10.5z" />
    <glyph glyph-name="meeting" unicode="&#xe69c;" 
d="M186 616q45 0 76.5 32t31.5 76.5t-31.5 76.5t-76.5 32t-77 -32t-32 -76.5t32 -76.5t77 -32zM182.5 797q28.5 0 48.5 -20t20 -48.5t-20 -48.5t-48.5 -20t-48.5 20t-20 48.5t20 48.5t48.5 20zM933 834h-566q-33 0 -33 -30t33 -30h546h5.5t11.5 -3t14.5 -8.5t11.5 -17.5
t5 -29v-369q0 -3 0.5 -8t-1 -17.5t-6 -22t-15.5 -17t-28 -7.5h-543q-33 0 -33 -27q0 -15 8.5 -23t24.5 -8h579q30 0 51.5 21t21.5 51v466q-1 79 -87 79zM548 525q0 23 -16 39t-38 16h-399q-39 0 -66 -29q-27 -28 -24 -67l11 -198q1 -27 19.5 -46.5t44.5 -21.5l15 -240
q2 -22 17.5 -36.5t37.5 -14.5h72q22 0 37.5 15t16.5 36l28 459l192 34q22 1 37 16.5t15 37.5zM470 506l-195 -35q-14 -3 -14 -17l-27 -468q0 -7 -5 -12t-11 -5h-69q-7 0 -12 5t-5 12l-15 253q-1 7 -6 12t-11 5h-9q-13 0 -23 10t-11 24l-10 196q-1 23 14 40t37 17h374
q7 0 12 -5.5t5 -13t-5 -12.5t-12 -5q-1 0 -2 -1zM590 404q5 -5 13 -5h3q9 2 13 10l61 122l55 -55q7 -7 15 -5q8 1 13 9l109 181q9 15 -6 25q-15 9 -25 -6l-97 -161l-56 56q-7 7 -16.5 5t-13.5 -10l-60 -122l-19 18q-5 6 -12.5 6t-13 -5.5t-5.5 -13t5 -12.5z" />
    <glyph glyph-name="review" unicode="&#xe62e;" 
d="M472 535q-45 -22 -77 -59t-47 -84l8 16v-1v-1q0 -13 8.5 -21.5t21.5 -8.5q18 0 26 16q31 71 103 96q-3 -1 -3 1t1.5 8.5t1.5 10.5q0 12 -9 21t-21 9q-7 0 -13 -3v0zM778 353v0q-12 0 -21 -9t-9 -21v0q0 -73 -51 -124.5t-124 -51.5q-12 0 -21 -8.5t-9 -21t9 -21t21 -8.5
q97 0 166 69q69 68 69 165v1v0q0 12 -8.5 21t-21.5 9v0v0zM980 -41l-135 135q84 99 84 230v0v1q0 73 -27.5 138t-76.5 114q-50 50 -115 77.5t-138 27.5v0h-1q-73 0 -138 -27.5t-114 -77.5q-50 -49 -77.5 -114t-27.5 -138v-1v0q0 -73 27.5 -138t77.5 -114q49 -50 114 -77.5
t138 -27.5h1v0v0q132 0 231 85l135 -136q9 -8 21.5 -8t21 8.5t8.5 21t-9 21.5v0zM572 26q-124 0 -211 87.5t-88 211.5q1 123 88 210t211 88q123 -1 210.5 -88t87.5 -210q0 -124 -87.5 -211.5t-210.5 -87.5v0zM332 -33h-167v0q-29 0 -50 20.5t-21 49.5v694q0 29 21 50t50 21
h634q29 0 50 -21t21 -50v-87q0 -12 8.5 -21t21 -9t21.5 9t9 21v87q-1 54 -39 92t-92 38h-634q-54 0 -92 -38t-38 -92v-694q0 -54 38 -92t92 -38h167q12 0 21 8.5t9 21t-9 21.5t-21 9v0z" />
    <glyph glyph-name="auth" unicode="&#xe619;" 
d="M594 40l51 51l102 -102l-51 -51zM1001 141l-254 -253l-51 50l254 254zM512 881q-120 0 -205 -85t-85 -205t85 -204.5t205 -84.5t204.5 84.5t84.5 204.5t-84.5 205t-204.5 85zM511.5 384q-85.5 0 -146 61t-60.5 146.5t60.5 146t146 60.5t146.5 -60.5t61 -146t-61 -146.5
t-146.5 -61zM512 302q143 0 256 -89l59 58q-137 113 -315 113q-101 0 -193 -39t-158.5 -105.5t-106 -158.5t-39.5 -193h83q0 112 55 207.5t150.5 151t208.5 55.5z" />
    <glyph glyph-name="success" unicode="&#xe844;" 
d="M511 893q-103 0 -197 -40t-162 -108.5t-108.5 -162t-40.5 -196.5t40.5 -197t108.5 -162t162 -108.5t197 -40.5t197 40.5t162 108.5t108 162t40 197t-40 196.5t-108 162t-162 108.5t-197 40zM511 -20q-110 0 -203.5 54.5t-148 148t-54.5 203.5t54.5 203.5t148 148
t203.5 54.5t203.5 -54.5t148 -148t54.5 -203.5t-54.5 -203.5t-148 -148t-203.5 -54.5zM509 237q-13 -13 -31 -13t-30 13l-145 144q-13 13 -12 32q1 18 12.5 29.5t28.5 11.5q19 1 33 -12l113 -113l200 200q13 13 32 12q18 -1 29.5 -12.5t12.5 -28.5q0 -19 -13 -33z" />
    <glyph glyph-name="put-storage" unicode="&#xe658;" 
d="M494 187q7 -7 17.5 -7t18.5 7l170 169q7 8 7 18.5t-7.5 18t-18 7.5t-18.5 -8l-126 -125v414q0 11 -7.5 18.5t-18 7.5t-18 -7.5t-7.5 -18.5v-414l-126 125q-7 8 -18 8t-18.5 -7.5t-7.5 -18t8 -18.5zM249 103.5q0 -10.5 7.5 -18t17.5 -7.5h493q10 0 17.5 7.5t7.5 18
t-7.5 18t-17.5 7.5h-493q-10 0 -17.5 -7.5t-7.5 -18zM877 826h-119v-2q-5 2 -8 2q-11 0 -18.5 -7.5t-7.5 -18t7.5 -18t18.5 -7.5q3 0 8 1v-1h85q28 0 48 -20t20 -48v-646q0 -28 -20 -48t-48 -20h-662q-28 0 -48 20t-20 48v646q0 28 20 48t48 20h85v1q5 -1 8 -1
q11 0 18.5 7.5t7.5 18t-7.5 18t-18.5 7.5q-3 0 -8 -2v2h-119q-35 0 -60 -25t-25 -60v-714q0 -35 25 -60t60 -25h730q35 0 60 25t25 60v714q0 35 -25 60t-60 25z" />
    <glyph glyph-name="upgrade-record" unicode="&#xe632;" 
d="M689 856h-472q-49 0 -83.5 -34.5t-34.5 -83.5v-708q0 -49 34.5 -83.5t83.5 -34.5h590q49 0 83.5 34.5t34.5 83.5v590zM866 30q0 -25 -17 -42t-42 -17h-590q-25 0 -42 17t-17 42v708q0 25 17 42t42 17h383l1 -177q0 -46 32 -67t86 -21h147v-502zM719 591q-25 0 -42 17
t-17 42v147l206 -206h-147zM689 354h-354q-12 0 -21 -8.5t-9 -20.5t9 -21t21 -9h354q12 0 21 9t9 21t-9 20.5t-21 8.5zM689 207h-354q-12 0 -21 -8.5t-9 -21t9 -21t21 -8.5h354q12 0 21 8.5t9 21t-9 21t-21 8.5z" />
    <glyph glyph-name="cloud-warehouse" unicode="&#xe723;" 
d="M888 180h-70q64 103 64 224q0 96 -41 181t-108.5 142.5t-160 84t-189.5 9.5q-120 -20 -220.5 -120.5t-120.5 -220.5q-17 -98 9.5 -190.5t84 -159.5t142.5 -108t180 -41h430q42 0 71 29t29 70.5t-29 70.5t-71 29zM943 79q0 -20 -14.5 -34t-34.5 -14h-434q-100 0 -186 49
t-136.5 134t-52.5 185q-1 103 48.5 190t136 138t188.5 51t188 -50t136 -136t50 -188q0 -132 -82 -233q-9 -18 1.5 -31t24.5 -12h103q12 1 17 1q21 0 34.5 -14.5t12.5 -35.5zM631 474l-10 5l-158 82l-161 -82l-6 -4q-6 -4 -6 -6v-228q0 -6 6 -6h335q6 0 6 6v227q0 4 -6 6z
M583 275q0 -1 -1 -1h-237q-2 0 -2 1v23q0 1 2 1h237q1 0 1 -1v-23zM583 328q0 -2 -1 -2h-237q-2 0 -2 2v22q0 1 2 1h237q1 0 1 -1v-22zM583 379q0 -1 -1 -1h-237q-2 0 -2 1v22q0 2 2 2h237q1 0 1 -2v-22zM646 518l-176 89q-9 3 -17 -1l-172 -88q-8 -4 -4 -13l4 -6
q5 -8 14 -4l168 87l169 -87q10 -5 14 4l4 6q5 10 -4 13z" />
    <glyph glyph-name="sender-address" unicode="&#xe648;" 
d="M512 27q-7 0 -15 7q0 1 -15 19t-34.5 42t-46 59.5t-52 72t-51.5 78.5t-45 80.5t-31 76.5t-12 68q0 125 88 213.5t214 88.5t214 -88.5t88 -213.5q0 -29 -12 -67t-31 -76t-45 -80.5t-51.5 -79t-52 -72t-46 -59.5t-34.5 -42.5t-15 -19.5q-4 -7 -15 -7zM512 792
q-109 0 -187.5 -78.5t-78.5 -187.5q0 -44 32 -112.5t81 -139.5t85 -118t68 -85q34 40 67 83.5t84 116.5t83 141t32 114q0 109 -78.5 187.5t-187.5 78.5zM967 -53h-910q-7 0 -15 7q-6 6 0 19l110 218q0 11 14 11h226q8 0 13 -5t5 -13t-5 -13t-13 -5h-215l-91 -182h852
l-91 182h-222q-8 0 -13 5t-5 13t5 13t13 5h233q14 0 14 -11l110 -218q4 -10 0 -19q-8 -7 -15 -7zM512 348q-60 0 -103 42.5t-43 102.5t43 103t103 43t103 -43t43 -103t-43 -102.5t-103 -42.5zM512 602q-46 0 -77.5 -31t-31.5 -77.5t31.5 -78t77.5 -31.5t77.5 31.5t31.5 78
t-31.5 77.5t-77.5 31z" />
    <glyph glyph-name="print" unicode="&#xe610;" 
d="M158 72h-11h-119t-20 6t-6 20v247t33 83t83 36h41v13v314q0 31 17 48t48 17h400q63 0 109 -45q42 -41 87 -87q44 -45 45 -107v-141v-12h38q43 -1 74.5 -26t40.5 -64q3 -14 3 -32q1 -62 1 -244q0 -14 -6 -20t-20 -6h-119h-12v-93q0 -25 -12 -40q-18 -24 -50 -24h-236h-343
q-31 0 -48 17t-17 48v89zM786 621h-12h-82q-33 0 -51 24q-11 16 -11 40v92h-392v-391h548v235zM786 150h-548v-156h548v156v0zM904 386q-16 0 -27.5 -12t-11.5 -28t11.5 -27.5t27.5 -11.5t27.5 11.5t11.5 27.5t-11.5 28t-27.5 12zM904 386z" />
    <glyph glyph-name="application" unicode="&#xe60f;" 
d="M357 419h-233q-48 0 -82 34t-34 82v233q0 48 34 82.5t82 34.5h233q48 0 82.5 -34.5t34.5 -82.5v-233q0 -48 -34.5 -82t-82.5 -34zM124 807q-16 0 -27 -11.5t-11 -27.5v0v-233q0 -16 11 -27.5t27 -11.5h233q16 0 27.5 11.5t11.5 27.5v233q0 16 -11.5 27.5t-27.5 11.5h-233
v0zM357 -125h-233q-48 1 -82 35t-34 82v233q0 48 34 82t82 34h233q48 0 82.5 -34t34.5 -82v-233q0 -48 -34.5 -82.5t-82.5 -34.5zM124 264q-16 0 -27 -11.5t-11 -27.5v0v-233q0 -16 11 -27.5t27 -11.5h233v0q16 0 27.5 11.5t11.5 27.5v233q0 16 -11.5 27.5t-27.5 11.5h-233
v0zM897 419h-233q-48 0 -82 34t-35 82v233q0 48 34.5 82.5t82.5 34.5h233q48 0 82 -34.5t34 -82.5v-233q0 -48 -34 -82t-82 -34v0zM664 807v0q-16 0 -27.5 -11.5t-11.5 -27.5v0v-233q0 -16 11.5 -27.5t27.5 -11.5h233v0q16 0 27.5 11.5t11.5 27.5v233q0 16 -11.5 27.5
t-27.5 11.5v0h-233v0zM897 -125h-233q-48 1 -82 35t-35 82v233q0 48 34.5 82t82.5 34h233q48 0 82 -34t34 -82v-233q0 -48 -34 -82.5t-82 -34.5zM664 264q-16 0 -27.5 -11.5t-11.5 -27.5v0v-233q0 -16 11.5 -27.5t27.5 -11.5h233v0q16 0 27.5 11.5t11.5 27.5v233
q0 16 -11.5 27.5t-27.5 11.5h-233v0z" />
    <glyph glyph-name="superior" unicode="&#xe9bc;" 
d="M302 384q-134 -41 -218 -162t-84 -271q0 -13 9 -22.5t22.5 -9.5t23 9.5t9.5 22.5q0 129 71.5 233t184.5 139q13 4 19.5 15.5t2.5 24.5t-16 19t-24 2v0zM514.5 863q-99.5 0 -170 -70.5t-70.5 -170t70.5 -170t170 -70.5t170 70.5t70.5 170t-70.5 170t-170 70.5zM514 446
q-73 0 -124.5 51.5t-51.5 124.5t51.5 125t124.5 52t125 -52t52 -125t-52 -124.5t-125 -51.5zM1008 225l-171 171q-10 11 -24 11t-24 -11l-171 -171q-10 -10 -10 -24t10 -24t24 -10t24 10l113 113v-329q0 -14 10 -24t24 -10t24 10t10 24v329l113 -113q10 -10 24 -10t24 10
t10 24t-10 24v0z" />
    <glyph glyph-name="delivery" unicode="&#xe882;" 
d="M1019 315l-137 206q-6 9 -16 9h-136v182q0 15 -10.5 25.5t-25.5 10.5h-655q-15 0 -26 -10.5t-11 -25.5v-510q0 -15 11 -25.5t26 -10.5h36q0 -61 43 -103.5t103 -42.5t102.5 42.5t42.5 103.5h292q0 -61 42.5 -103.5t102.5 -42.5t103 42.5t43 103.5h36q15 0 26 10.5
t11 25.5v103q0 6 -3 10zM221 93q-30 0 -51.5 21.5t-21.5 51.5t21.5 51t51.5 21t51.5 -21t21.5 -51t-21.5 -51.5t-51.5 -21.5zM658 238h-312q-19 34 -52.5 53.5t-73 19.5t-73 -19.5t-52.5 -53.5h-20v437h583v-437zM803 93q-30 0 -51.5 21.5t-21.5 51.5t21.5 51t51.5 21
t51.5 -21t21.5 -51t-21.5 -51.5t-51.5 -21.5zM949 238h-20q-20 34 -53 53.5t-73 19.5q-38 0 -73 -20v166h109q10 0 14 -8l92 -133q4 -6 4 -10v-68z" />
    <glyph glyph-name="package" unicode="&#xe884;" 
d="M803 93h-291v73h291v-73zM803 311h-218v-73h218v73zM949 639v-655q0 -16 -10.5 -26.5t-26.5 -10.5h-800q-16 0 -26.5 10.5t-10.5 26.5v655h-1l80 142q21 40 66 40h583q21 0 38.5 -11t27.5 -29zM530 748v-109h347l-51 88q-7 18 -26 21h-270zM224 748q-19 -3 -26 -21
l-51 -88h347v109h-270zM876 602h-728v-582h728v582z" />
    <glyph glyph-name="unpack" unicode="&#xe885;" 
d="M512 148h291v-73h-291v73zM585 294h218v-73h-218v73zM937 585l-394 144l-25 -68l206 -76h-509l327 235l-43 59l-408 -294h-16v-619q0 -15 10.5 -25.5t26.5 -10.5h800q16 0 26.5 10.5t10.5 25.5v619h-12zM876 3h-728v546h728v-546z" />
    <glyph glyph-name="level2" unicode="&#xe605;" 
d="M1019 794v-23q-24 0 -53 -5.5t-39 -15.5q-20 -20 -48 -92l-271 -684h-173l-299 669q-35 79 -61 103.5t-68 24.5v23h467v-23q-86 0 -104.5 -8t-18.5 -37q0 -17 20 -62q21 -47 30 -68l184 -411l179 446q6 20 16 48q7 26 7 36q0 34 -24 45q-10 5 -47.5 8t-64.5 3v23h368z
" />
    <glyph glyph-name="my-superior" unicode="&#xe629;" 
d="M733 260q-110 92 -253 92q-107 0 -198 -52.5t-144 -143.5t-54 -198v-5q0 -17 -12.5 -29.5t-29.5 -12.5t-29.5 12.5t-12.5 29.5q0 96 37 187q37 87 103 153t152 103q30 12 41 16q-46 34 -73 86.5t-27 112.5q0 102 72 174t173 72t172.5 -72t71.5 -174q0 -60 -26.5 -112.5
t-73.5 -86.5q16 -6 21 -8q68 -24 129 -72q3 -2 11 -9l4 -3l-33 -35q-10 -12 -21 -25zM1009 382q9 0 13 7.5t-1 14.5l-80 109q-8 11 -22 11t-21 -11l-80 -109q-5 -6 -1 -14t13 -8h55q0 -97 -68 -165.5t-164 -68.5q-91 0 -157 61q-6 6 -15 5t-14 -8l-18 -23q-11 -15 2 -28
q86 -77 201 -77q126 0 214.5 89t88.5 215h54z" />
    <glyph glyph-name="my-recharge" unicode="&#xe660;" 
d="M702 36q-99 -64 -220 -64v0q-111 0 -206 55t-150 150t-55 206.5t55 206.5t150 150.5t206.5 55.5t206 -55.5t149.5 -150.5t55 -206v-8h54v8v0q0 95 -35.5 180t-100 149.5t-149.5 100.5t-180 36v0h-1q-94 0 -179 -36t-149 -100q-98 -99 -126 -234v8q-8 -22 -10 -92v-11v-1
v-1q0 -95 36 -180t100 -149.5t149 -100.5t180 -36v0v0q168 0 297 108l15 12h-91l-1 -1v0zM988 258h-219l58 62q7 7 7 17q0 11 -8 19q-7 7 -17 7v0h-1q-10 0 -17 -8l-99 -104q-1 -2 -3 -5l-2 -4q-2 -4 -2 -9t2 -10q1 -1 3 -5q1 -2 2 -3l99 -104q7 -8 18 -8v0v0q10 0 17 7
q8 8 8 18q0 11 -7 18l-58 61h219q10 0 17.5 7.5t7.5 18.5v0v0q0 10 -7.5 17.5t-17.5 7.5zM620 358q12 0 19.5 8t7.5 19v0v1q0 11 -7.5 19t-19.5 8h-116v15q2 4 2 9l113 115q8 8 8 19.5t-8 19.5t-19.5 8t-18.5 -8l-104 -112l-104 112q-8 8 -19 8t-19 -8t-8 -19.5t8 -19.5
l114 -121q1 -5 5 -9l-4 -9h-117q-11 0 -18.5 -8t-7.5 -19v-1q0 -11 7.5 -19t18.5 -8h117v-31h-117q-11 -1 -18.5 -8.5t-7.5 -19.5v0q0 -11 7.5 -19t18.5 -8h117v-78q0 -11 8 -19t19 -8t19 8t8 19v0v78h116q12 0 19.5 8t7.5 19v0v0q0 12 -7.5 19.5t-19.5 8.5h-116v31h116z
" />
    <glyph glyph-name="agent" unicode="&#xe6bc;" 
d="M969 616q-4 11 -13 18t-20 7q-15 0 -25 -10t-10 -24q0 -9 4 -16q51 -97 51 -207q0 -90 -35 -172.5t-94.5 -142t-142 -94.5t-172.5 -35t-172.5 35t-142 94.5t-94.5 142t-35 172.5t35 172.5t94.5 142t142 94.5t172.5 35q150 0 269 -90q6 -5 8 -7q10 -5 18 -5q14 0 24.5 10
t10.5 24q0 20 -18 30q-139 106 -312 106q-104 0 -199 -40.5t-163.5 -109t-109 -163.5t-40.5 -199t40.5 -199t109 -163.5t163.5 -109t199 -40.5t199 40.5t163.5 109t109 163.5t40.5 199q0 121 -54 229zM369 598q-32 -93 -118 -207q4 -20 8 -58q1 -10 2 -15q16 21 33 45l17 26
v-260l51 -2v338l8 17q37 75 49 107zM671 507q5 5 18 17q2 1 9 7.5t11 9.5q-39 35 -75 62l-31 -35q34 -26 68 -61zM747 254q-34 15 -50 25q-2 -9 -6 -22q-3 -13 -5 -19q-7 -29 -12 -36q-6 -9 -16 -9q-21 0 -48 50q-26 48 -42 154l-2 10l170 21l-13 49l-164 -20v10
q-6 63 -6 132h-56q2 -73 8 -138l1 -9l-98 -14l16 -49l84 12l1 -9q16 -129 55.5 -195.5t99.5 -66.5q36 0 51 29q23 44 32 95z" />
    <glyph glyph-name="my-rebate" unicode="&#xe624;" 
d="M946 278q-52 185 -220 280q-2 2 -40 21v0l3.5 3.5l3.5 3.5q41 38 55 76q4 9 11 33q9 59 -27 88q-50 42 -116 16q-4 -2 -7 0q-40 37 -96.5 37.5t-97.5 -36.5q-3 -3 -7 -1q-32 14 -68 7t-58 -33t-17 -62q8 -65 53 -114l19 -19q-28 -14 -61 -19q-77 -41 -140 -143.5
t-72 -221.5q-5 -74 11 -138q15 -54 59.5 -89.5t102.5 -34.5h276h275q87 0 138 72q21 30 29 79q16 102 -9 195zM893 125q-8 -51 -22 -72q-20 -29 -55.5 -46t-73.5 -17h-229.5h-230.5q-50 0 -90 26.5t-51 71.5q-12 47 -7 130q8 104 88 200t183 144l-9 9t-20 19t-13 12
q-21 24 -31.5 43.5t-13.5 45.5q-7 53 50 65q8 2 23.5 -2t27 -8.5t12.5 -4.5q34 32 81 32t80 -33q3 -2 7 0q20 9 33 12t29.5 1t29.5 -14q16 -13 19 -27t-2 -35q-2 -8 -13 -26.5t-17 -27.5q-18 -24 -58 -62l15.5 -7.5t33 -16.5t21.5 -12q40 -31 64.5 -52t50 -49.5t42 -60
t26.5 -70.5q6 -22 9 -34t7 -32t5.5 -34.5t1.5 -33t-3 -34.5zM618 213h-77v32h77q12 0 20.5 8.5t8.5 21t-8.5 21t-20.5 8.5h-77v15l60 58q1 1 1 2l16 16l4 4l14 14q9 8 9 20.5t-8.5 21t-21 8.5t-20.5 -9l-18 -17l-61 -60l-65 64l-18 18q-8 8 -20.5 8t-21 -8.5t-8.5 -21
t9 -20.5l14 -14v0l19 -20q1 -1 2 -1l55 -55v-23h-76q-12 0 -20.5 -8.5t-8.5 -21t8.5 -21t20.5 -8.5h76v-32h-76q-12 0 -20.5 -8.5t-8.5 -21t8.5 -21t20.5 -8.5h76v-20q0 -12 9 -21t21 -9t20.5 9t8.5 21v20h76q13 0 21.5 8.5t8.5 21t-8.5 21t-20.5 8.5z" />
    <glyph glyph-name="my-income" unicode="&#xe68d;" horiz-adv-x="1228" 
d="M-21 -127q0 14 10 24t24 10h1212q14 -1 24 -11t10 -23.5t-10 -23.5t-24 -10h-1212q-14 0 -24 10t-10 24v0zM918 804h-8q-12 0 -22 7t-13 20q-2 13 4.5 24.5t20.5 16.5l133 39q20 6 33 -7q9 -9 12 -18l1 -2l30 -143q2 -13 -5 -24.5t-21 -16.5l-3 -1h-6q-13 0 -23 8t-12 20
l-23 110l21 5l19 -11q-3 -7 -6 -13l-8 -16l-13 -26q-129 -242 -350 -404t-485 -207l-4 -1q-14 0 -24.5 8t-12.5 21q-1 3 -1 6q0 13 8.5 23t20.5 13q251 42 460 197t330 388q5 9 8 17q8 13 14 27l20 -9l6 -21l-101 -30v0zM1074 743h3v-1q-2 1 -3 1zM1046 869v0v0zM1059 846
l23 -110q-1 4 -6 6v-21l-6 21q-6 -2 -4 -9l-30 142l22 4l-21 -7q3 -2 6 -3h3l-132 -38q6 2 4 9q-1 4 -4 6q-1 1 -3 1h3v-21l-6 21l144 43l-19 -43q-7 -16 -15 -31q-124 -248 -343.5 -413.5t-484.5 -210.5q6 2 6 8l-1 1q-1 5 -5 6q-1 1 -2 1h2v-22l-3 22q261 45 477.5 208
t339.5 407q2 4 6 13q5 11 8 17l29 49l12 -56v0zM1036 582q14 0 24.5 -11t10.5 -25v-670q0 -15 -10 -25t-25 -10t-25 10t-10 25v670q0 15 10 25.5t25 10.5v0zM766 320q14 0 24.5 -11t10.5 -25v-408q0 -15 -10 -25t-25 -10t-25.5 10t-10.5 25v408q0 15 10.5 25.5t25.5 10.5z
M496 158q15 0 25 -10t10 -25v-247q0 -15 -10 -25t-25.5 -10t-25.5 10t-10 25v247q0 15 10 25t26 10v0zM261 36v-160q0 -15 -10 -25t-25.5 -10t-25.5 10t-10 25v160q0 15 10 25t25.5 10t25.5 -10t10 -25z" />
    <glyph glyph-name="add-order" unicode="&#xe650;" 
d="M482 -44h-332q-24 0 -42 16.5t-18 43.5v753q0 24 16.5 42.5t43.5 18.5h663q23 0 38 -15t15 -38v-279q0 -11 9.5 -20.5t20.5 -9.5t20.5 9.5t9.5 20.5v279q0 50 -33.5 85t-79.5 35h-678q-45 0 -79 -35t-34 -85v-768q0 -51 34 -86t79 -35h339q12 0 21 9.5t9 20.5q6 16 -2 27
t-20 11v0zM256 302q-11 0 -20.5 -9t-9.5 -21v-7q0 -12 9.5 -21t20.5 -9h301q11 0 20.5 9t9.5 21v7q0 12 -9.5 21t-20.5 9h-301zM248 491q-11 0 -20.5 -9.5t-9.5 -20.5v-8q0 -11 9.5 -20.5t20.5 -9.5h467q12 0 21.5 9.5t9.5 20.5v8q0 11 -9.5 20.5t-21.5 9.5h-467zM738 664
q0 11 -9.5 20.5t-20.5 9.5h-460q-11 0 -20.5 -9.5t-9.5 -20.5v-8q0 -11 9.5 -20.5t20.5 -9.5h467q12 0 21.5 9.5t9.5 20.5v8h-8zM994 167q-5 10 -14 16t-16 6h-53v128q0 17 -10 27.5t-27 10.5h-76q-17 0 -27 -10.5t-10 -27.5v-135h-46q-12 0 -21 -6t-9 -17q-12 -25 0 -37
l128 -151q6 -11 15.5 -16t14.5 1q16 0 31 15l128 151q0 30 -8 45z" />
  </font>
</defs>
</svg>
